:FULLY-SPECIFIED
:FORCE-ALL-JOINTS-BE-3DOF
:DEGREES
57
root 4.7701 17.3594 -17.0928 5.83293 -8.44487 -3.70285
lfemur -39.3483 2.64448 -15.5941
ltibia 52.9113 0 0
lfoot -0.04051 -2.38451 -0.667961
ltoes -9.46618 0 0
rfemur 16.3601 4.70493 23.4843
rtibia 20.8857 0 0
rfoot 21.4922 -5.01882 -0.116136
rtoes -8.03137 0 0
lowerback 3.79958 1.75148 3.32548
upperback -0.74994 2.41687 1.53997
thorax -2.69915 1.22221 -0.570762
lowerneck -14.0381 -1.93813 -6.2951
upperneck 4.8032 -2.0959 7.54397
head 4.19622 -0.816131 3.25958
lclavicle -2.4873e-14 -7.70291e-15 -6.68116e-33
lhumerus -52.3353 -5.04964 90.6459
lradius 61.3267 0 0
lwrist 8.88598 0 0
lhand -17.4528 -4.56574 -2.40137
lfingers 7.12502 0 0
lthumb 8.75925 24.2818 -2.46214
rclavicle -2.4873e-14 -7.70291e-15 -6.68116e-33
rhumerus -36.0361 17.7119 -90.3664
rradius 76.5079 0 0
rwrist -12.2426 0 0
rhand -35.7975 5.6093 -2.10303
rfingers 7.12502 0 0
rthumb -8.90888 -24.0479 -2.05059
58
root 4.77883 17.4136 -16.7322 5.72955 -8.44959 -3.59834
lfemur -38.5198 2.12425 -15.5706
ltibia 49.9936 0 0
lfoot 0.387605 -2.08762 -0.73287
ltoes -8.05691 0 0
rfemur 16.2987 4.88067 23.3622
rtibia 22.0835 0 0
rfoot 23.278 -5.42564 -0.0353801
rtoes -3.04114 0 0
lowerback 3.67002 1.75777 3.1936
upperback -0.691573 2.41383 1.47522
thorax -2.57183 1.22297 -0.552863
lowerneck -14.5935 -1.98606 -6.40013
upperneck 5.3636 -2.14354 7.64035
head 4.47582 -0.82637 3.31919
lclavicle -3.47875e-15 1.4909e-15 -3.81174e-30
lhumerus -52.3605 -4.81359 90.4202
lradius 61.6443 0 0
lwrist 9.19322 0 0
lhand -17.1606 -4.1689 -2.34945
lfingers 7.12502 0 0
lthumb 9.04023 24.6701 -2.41574
rclavicle -3.47875e-15 1.4909e-15 -3.81174e-30
rhumerus -36.1034 17.9731 -90.2871
rradius 76.2969 0 0
rwrist -12.449 0 0
rhand -35.4887 7.5076 -2.18542
rfingers 7.12502 0 0
rthumb -8.61101 -22.1603 -2.12987
59
root 4.78861 17.4614 -16.3837 5.64321 -8.42475 -3.60556
lfemur -37.5473 1.76328 -15.477
ltibia 47.1445 0 0
lfoot 0.2852 -1.7578 -0.730218
ltoes -8.59122 0 0
rfemur 16.2871 5.12448 23.4911
rtibia 23.2281 0 0
rfoot 23.9373 -6.01715 0.102287
rtoes -2.9146 0 0
lowerback 3.72426 1.79342 3.17529
upperback -0.737 2.46831 1.43663
thorax -2.65875 1.24634 -0.576276
lowerneck -14.6911 -2.08904 -6.61274
upperneck 5.63335 -2.26238 7.78339
head 4.58816 -0.879715 3.39475
lclavicle 5.2678e-15 -5.36718e-15 2.65525e-32
lhumerus -52.4495 -4.83898 90.337
lradius 61.9136 0 0
lwrist 9.63393 0 0
lhand -17.1321 -3.4105 -2.43547
lfingers 7.12502 0 0
lthumb 9.06731 25.4219 -2.50001
rclavicle 5.2678e-15 -5.36718e-15 2.65525e-32
rhumerus -36.309 18.2397 -90.2634
rradius 76.0238 0 0
rwrist -12.2962 0 0
rhand -35.7873 7.3869 -2.11207
rfingers 7.12502 0 0
rthumb -8.89944 -22.2809 -2.05779
60
root 4.79972 17.5039 -16.0454 5.66896 -8.30782 -3.59329
lfemur -36.7028 1.36148 -15.4191
ltibia 44.146 0 0
lfoot 0.59515 -1.11411 -0.719525
ltoes -8.94578 0 0
rfemur 16.1594 5.3145 23.6525
rtibia 24.3229 0 0
rfoot 26.0886 -6.25268 0.245104
rtoes 7.63621 0 0
lowerback 3.76401 1.79944 3.05862
upperback -0.813655 2.48048 1.44758
thorax -2.77056 1.24946 -0.500921
lowerneck -14.726 -2.16881 -6.7557
upperneck 5.72191 -2.34681 7.80832
head 4.614 -0.920446 3.42025
lclavicle 2.4376e-14 8.34898e-15 -2.01256e-30
lhumerus -52.4898 -4.82056 90.3455
lradius 62.1356 0 0
lwrist 10.0719 0 0
lhand -16.9278 -3.43925 -2.41652
lfingers 7.12502 0 0
lthumb 9.26417 25.3959 -2.48275
rclavicle 2.4376e-14 8.34898e-15 -2.01256e-30
rhumerus -36.5992 18.4242 -90.1775
rradius 75.81 0 0
rwrist -12.1669 0 0
rhand -36.0639 6.9075 -1.96965
rfingers 7.12502 0 0
rthumb -9.16698 -22.7645 -1.91825
